# xmcd
#
# Track frame offsets: 
#        150
#        12723
#        25055
#        37602
#        48758
#        62506
#        74068
#        85914
#        97738
#        111104
#
# Disc length: 1646 seconds
#
# Revision: 0
# Processed by: cddbd v1.5.2PL0 Copyright (c) Steve Scherf et al.
# Submitted via: ExactAudioCopy v0.95b3
#
DISCID=73066c0a
DTITLE=Hank Williams - Original American Classics: Country Original
DYEAR=2006
DGENRE=Country/ Western
TTITLE0=I'm So Lonesome I could Cry
TTITLE1=Cold, Cold Heart
TTITLE2=Lovesick Blues (Live)
TTITLE3=Crazy Heart
TTITLE4=Ramblin' Man
TTITLE5=My Son Calls Another Man Daddy
TTITLE6=Why Should We Try Anymore?
TTITLE7=Settin' The Woods On Fire
TTITLE8=A Mansion On TheHill (Live)
TTITLE9=I Saw The Light
EXTD=
EXTT0=
EXTT1=
EXTT2=
EXTT3=
EXTT4=
EXTT5=
EXTT6=
EXTT7=
EXTT8=
EXTT9=
PLAYORDER=
